<mxfile host="app.diagrams.net" modified="2022-11-26T12:50:42.101Z" agent="5.0 (Windows NT 10.0; Win64; x64) AppleWebKit/537.36 (KHTML, like Gecko) Chrome/107.0.0.0 Safari/537.36" etag="MJnnwOTiVkEHJQLFox19" version="20.5.3" type="github">
  <diagram id="C5RBs43oDa-KdzZeNtuy" name="Page-1">
    <mxGraphModel dx="1221" dy="620" grid="1" gridSize="10" guides="1" tooltips="1" connect="1" arrows="1" fold="1" page="1" pageScale="1" pageWidth="1654" pageHeight="1169" math="0" shadow="0">
      <root>
        <mxCell id="WIyWlLk6GJQsqaUBKTNV-0" />
        <mxCell id="WIyWlLk6GJQsqaUBKTNV-1" parent="WIyWlLk6GJQsqaUBKTNV-0" />
        <mxCell id="uSoDxJ3zm2cTv4jHtbHI-2" value="" style="rounded=0;whiteSpace=wrap;html=1;" vertex="1" parent="WIyWlLk6GJQsqaUBKTNV-1">
          <mxGeometry x="270" y="370" width="120" height="60" as="geometry" />
        </mxCell>
        <mxCell id="uSoDxJ3zm2cTv4jHtbHI-50" value="" style="rounded=0;whiteSpace=wrap;html=1;" vertex="1" parent="WIyWlLk6GJQsqaUBKTNV-1">
          <mxGeometry x="760" y="575" width="120" height="60" as="geometry" />
        </mxCell>
        <mxCell id="uSoDxJ3zm2cTv4jHtbHI-73" value="" style="edgeStyle=orthogonalEdgeStyle;rounded=0;orthogonalLoop=1;jettySize=auto;html=1;fontSize=10;startArrow=none;startFill=0;endArrow=classic;endFill=1;" edge="1" parent="WIyWlLk6GJQsqaUBKTNV-1" source="uSoDxJ3zm2cTv4jHtbHI-0" target="uSoDxJ3zm2cTv4jHtbHI-3">
          <mxGeometry relative="1" as="geometry" />
        </mxCell>
        <mxCell id="uSoDxJ3zm2cTv4jHtbHI-0" value="User" style="shape=umlActor;verticalLabelPosition=bottom;verticalAlign=top;html=1;outlineConnect=0;" vertex="1" parent="WIyWlLk6GJQsqaUBKTNV-1">
          <mxGeometry x="130" y="350" width="80" height="120" as="geometry" />
        </mxCell>
        <mxCell id="uSoDxJ3zm2cTv4jHtbHI-3" value="Nginx" style="rounded=0;whiteSpace=wrap;html=1;" vertex="1" parent="WIyWlLk6GJQsqaUBKTNV-1">
          <mxGeometry x="280" y="380" width="120" height="60" as="geometry" />
        </mxCell>
        <mxCell id="uSoDxJ3zm2cTv4jHtbHI-4" value="" style="rounded=0;whiteSpace=wrap;html=1;" vertex="1" parent="WIyWlLk6GJQsqaUBKTNV-1">
          <mxGeometry x="260" y="160" width="120" height="60" as="geometry" />
        </mxCell>
        <mxCell id="uSoDxJ3zm2cTv4jHtbHI-5" value="Cash Nginx" style="rounded=0;whiteSpace=wrap;html=1;" vertex="1" parent="WIyWlLk6GJQsqaUBKTNV-1">
          <mxGeometry x="270" y="170" width="120" height="60" as="geometry" />
        </mxCell>
        <mxCell id="uSoDxJ3zm2cTv4jHtbHI-6" value="" style="rounded=0;whiteSpace=wrap;html=1;" vertex="1" parent="WIyWlLk6GJQsqaUBKTNV-1">
          <mxGeometry x="430" y="280" width="120" height="60" as="geometry" />
        </mxCell>
        <mxCell id="uSoDxJ3zm2cTv4jHtbHI-40" value="" style="edgeStyle=orthogonalEdgeStyle;rounded=0;orthogonalLoop=1;jettySize=auto;html=1;fontSize=10;startArrow=none;startFill=0;exitX=0;exitY=0.5;exitDx=0;exitDy=0;" edge="1" parent="WIyWlLk6GJQsqaUBKTNV-1" source="uSoDxJ3zm2cTv4jHtbHI-7" target="uSoDxJ3zm2cTv4jHtbHI-5">
          <mxGeometry relative="1" as="geometry">
            <mxPoint x="260" y="300" as="sourcePoint" />
          </mxGeometry>
        </mxCell>
        <mxCell id="uSoDxJ3zm2cTv4jHtbHI-7" value="Attachment microservice" style="rounded=0;whiteSpace=wrap;html=1;" vertex="1" parent="WIyWlLk6GJQsqaUBKTNV-1">
          <mxGeometry x="440" y="290" width="120" height="60" as="geometry" />
        </mxCell>
        <mxCell id="uSoDxJ3zm2cTv4jHtbHI-8" value="" style="rounded=0;whiteSpace=wrap;html=1;" vertex="1" parent="WIyWlLk6GJQsqaUBKTNV-1">
          <mxGeometry x="522.5" y="550" width="120" height="60" as="geometry" />
        </mxCell>
        <mxCell id="uSoDxJ3zm2cTv4jHtbHI-9" value="Post Microservice" style="rounded=0;whiteSpace=wrap;html=1;" vertex="1" parent="WIyWlLk6GJQsqaUBKTNV-1">
          <mxGeometry x="532.5" y="560" width="120" height="60" as="geometry" />
        </mxCell>
        <mxCell id="uSoDxJ3zm2cTv4jHtbHI-10" value="" style="rounded=0;whiteSpace=wrap;html=1;" vertex="1" parent="WIyWlLk6GJQsqaUBKTNV-1">
          <mxGeometry x="347.5" y="550" width="120" height="60" as="geometry" />
        </mxCell>
        <mxCell id="uSoDxJ3zm2cTv4jHtbHI-11" value="User Microservice" style="rounded=0;whiteSpace=wrap;html=1;" vertex="1" parent="WIyWlLk6GJQsqaUBKTNV-1">
          <mxGeometry x="357.5" y="560" width="120" height="60" as="geometry" />
        </mxCell>
        <mxCell id="uSoDxJ3zm2cTv4jHtbHI-12" value="" style="rounded=0;whiteSpace=wrap;html=1;" vertex="1" parent="WIyWlLk6GJQsqaUBKTNV-1">
          <mxGeometry x="597.5" y="215" width="120" height="60" as="geometry" />
        </mxCell>
        <mxCell id="uSoDxJ3zm2cTv4jHtbHI-72" value="" style="edgeStyle=elbowEdgeStyle;rounded=0;orthogonalLoop=1;jettySize=auto;html=1;fontSize=10;startArrow=none;startFill=0;endArrow=classic;endFill=1;" edge="1" parent="WIyWlLk6GJQsqaUBKTNV-1" source="uSoDxJ3zm2cTv4jHtbHI-13" target="uSoDxJ3zm2cTv4jHtbHI-71">
          <mxGeometry relative="1" as="geometry" />
        </mxCell>
        <mxCell id="uSoDxJ3zm2cTv4jHtbHI-13" value="Session Microservice" style="rounded=0;whiteSpace=wrap;html=1;" vertex="1" parent="WIyWlLk6GJQsqaUBKTNV-1">
          <mxGeometry x="607.5" y="225" width="120" height="60" as="geometry" />
        </mxCell>
        <mxCell id="uSoDxJ3zm2cTv4jHtbHI-14" value="" style="rounded=0;whiteSpace=wrap;html=1;" vertex="1" parent="WIyWlLk6GJQsqaUBKTNV-1">
          <mxGeometry x="430" y="370" width="120" height="60" as="geometry" />
        </mxCell>
        <mxCell id="uSoDxJ3zm2cTv4jHtbHI-36" value="" style="edgeStyle=orthogonalEdgeStyle;rounded=0;orthogonalLoop=1;jettySize=auto;html=1;fontSize=10;startArrow=classic;startFill=1;" edge="1" parent="WIyWlLk6GJQsqaUBKTNV-1" source="uSoDxJ3zm2cTv4jHtbHI-15" target="uSoDxJ3zm2cTv4jHtbHI-3">
          <mxGeometry relative="1" as="geometry" />
        </mxCell>
        <mxCell id="uSoDxJ3zm2cTv4jHtbHI-37" value="" style="edgeStyle=elbowEdgeStyle;rounded=0;orthogonalLoop=1;jettySize=auto;html=1;fontSize=10;startArrow=none;startFill=0;" edge="1" parent="WIyWlLk6GJQsqaUBKTNV-1" source="uSoDxJ3zm2cTv4jHtbHI-15" target="uSoDxJ3zm2cTv4jHtbHI-13">
          <mxGeometry relative="1" as="geometry">
            <Array as="points">
              <mxPoint x="660" y="350" />
            </Array>
          </mxGeometry>
        </mxCell>
        <mxCell id="uSoDxJ3zm2cTv4jHtbHI-38" value="" style="edgeStyle=orthogonalEdgeStyle;rounded=0;orthogonalLoop=1;jettySize=auto;html=1;fontSize=10;startArrow=classic;startFill=1;" edge="1" parent="WIyWlLk6GJQsqaUBKTNV-1" source="uSoDxJ3zm2cTv4jHtbHI-15" target="uSoDxJ3zm2cTv4jHtbHI-7">
          <mxGeometry relative="1" as="geometry" />
        </mxCell>
        <mxCell id="uSoDxJ3zm2cTv4jHtbHI-65" style="edgeStyle=orthogonalEdgeStyle;rounded=0;orthogonalLoop=1;jettySize=auto;html=1;entryX=0.5;entryY=0;entryDx=0;entryDy=0;fontSize=10;startArrow=classic;startFill=1;endArrow=none;endFill=0;" edge="1" parent="WIyWlLk6GJQsqaUBKTNV-1" source="uSoDxJ3zm2cTv4jHtbHI-15" target="uSoDxJ3zm2cTv4jHtbHI-10">
          <mxGeometry relative="1" as="geometry" />
        </mxCell>
        <mxCell id="uSoDxJ3zm2cTv4jHtbHI-66" style="edgeStyle=orthogonalEdgeStyle;rounded=0;orthogonalLoop=1;jettySize=auto;html=1;entryX=0.5;entryY=0;entryDx=0;entryDy=0;fontSize=10;startArrow=classic;startFill=1;endArrow=none;endFill=0;" edge="1" parent="WIyWlLk6GJQsqaUBKTNV-1" source="uSoDxJ3zm2cTv4jHtbHI-15" target="uSoDxJ3zm2cTv4jHtbHI-8">
          <mxGeometry relative="1" as="geometry" />
        </mxCell>
        <mxCell id="uSoDxJ3zm2cTv4jHtbHI-67" style="edgeStyle=orthogonalEdgeStyle;rounded=0;orthogonalLoop=1;jettySize=auto;html=1;entryX=0.5;entryY=0;entryDx=0;entryDy=0;fontSize=10;startArrow=none;startFill=0;endArrow=classic;endFill=1;curved=1;" edge="1" parent="WIyWlLk6GJQsqaUBKTNV-1" source="uSoDxJ3zm2cTv4jHtbHI-15" target="uSoDxJ3zm2cTv4jHtbHI-51">
          <mxGeometry relative="1" as="geometry">
            <Array as="points">
              <mxPoint x="650" y="410" />
              <mxPoint x="650" y="585" />
            </Array>
          </mxGeometry>
        </mxCell>
        <mxCell id="uSoDxJ3zm2cTv4jHtbHI-69" style="edgeStyle=elbowEdgeStyle;rounded=0;orthogonalLoop=1;jettySize=auto;html=1;entryX=0;entryY=0.5;entryDx=0;entryDy=0;fontSize=10;startArrow=none;startFill=0;endArrow=classic;endFill=1;" edge="1" parent="WIyWlLk6GJQsqaUBKTNV-1" source="uSoDxJ3zm2cTv4jHtbHI-15" target="uSoDxJ3zm2cTv4jHtbHI-22">
          <mxGeometry relative="1" as="geometry">
            <Array as="points">
              <mxPoint x="660" y="410" />
            </Array>
          </mxGeometry>
        </mxCell>
        <mxCell id="uSoDxJ3zm2cTv4jHtbHI-15" value="Event Microservice" style="rounded=0;whiteSpace=wrap;html=1;" vertex="1" parent="WIyWlLk6GJQsqaUBKTNV-1">
          <mxGeometry x="440" y="380" width="120" height="60" as="geometry" />
        </mxCell>
        <mxCell id="uSoDxJ3zm2cTv4jHtbHI-41" style="edgeStyle=orthogonalEdgeStyle;rounded=0;orthogonalLoop=1;jettySize=auto;html=1;entryX=0.46;entryY=0.011;entryDx=0;entryDy=0;entryPerimeter=0;fontSize=10;startArrow=classic;startFill=1;endArrow=none;endFill=0;exitX=0.16;exitY=0.55;exitDx=0;exitDy=0;exitPerimeter=0;" edge="1" parent="WIyWlLk6GJQsqaUBKTNV-1" source="uSoDxJ3zm2cTv4jHtbHI-16" target="uSoDxJ3zm2cTv4jHtbHI-5">
          <mxGeometry relative="1" as="geometry">
            <mxPoint x="250" y="110" as="sourcePoint" />
          </mxGeometry>
        </mxCell>
        <mxCell id="uSoDxJ3zm2cTv4jHtbHI-42" value="" style="edgeStyle=orthogonalEdgeStyle;rounded=0;orthogonalLoop=1;jettySize=auto;html=1;fontSize=10;startArrow=classic;startFill=1;endArrow=none;endFill=0;entryX=0.5;entryY=0;entryDx=0;entryDy=0;" edge="1" parent="WIyWlLk6GJQsqaUBKTNV-1" source="uSoDxJ3zm2cTv4jHtbHI-16" target="uSoDxJ3zm2cTv4jHtbHI-7">
          <mxGeometry relative="1" as="geometry" />
        </mxCell>
        <mxCell id="uSoDxJ3zm2cTv4jHtbHI-16" value="Amazon S3" style="ellipse;shape=cloud;whiteSpace=wrap;html=1;" vertex="1" parent="WIyWlLk6GJQsqaUBKTNV-1">
          <mxGeometry x="430" y="90" width="120" height="80" as="geometry" />
        </mxCell>
        <mxCell id="uSoDxJ3zm2cTv4jHtbHI-22" value="" style="rounded=0;whiteSpace=wrap;html=1;" vertex="1" parent="WIyWlLk6GJQsqaUBKTNV-1">
          <mxGeometry x="725" y="440" width="30" height="30" as="geometry" />
        </mxCell>
        <mxCell id="uSoDxJ3zm2cTv4jHtbHI-23" value="" style="rounded=0;whiteSpace=wrap;html=1;" vertex="1" parent="WIyWlLk6GJQsqaUBKTNV-1">
          <mxGeometry x="755" y="440" width="30" height="30" as="geometry" />
        </mxCell>
        <mxCell id="uSoDxJ3zm2cTv4jHtbHI-24" value="" style="rounded=0;whiteSpace=wrap;html=1;" vertex="1" parent="WIyWlLk6GJQsqaUBKTNV-1">
          <mxGeometry x="785" y="440" width="30" height="30" as="geometry" />
        </mxCell>
        <mxCell id="uSoDxJ3zm2cTv4jHtbHI-57" style="edgeStyle=orthogonalEdgeStyle;rounded=0;orthogonalLoop=1;jettySize=auto;html=1;entryX=0.5;entryY=0;entryDx=0;entryDy=0;fontSize=10;startArrow=none;startFill=0;endArrow=classic;endFill=1;" edge="1" parent="WIyWlLk6GJQsqaUBKTNV-1" source="uSoDxJ3zm2cTv4jHtbHI-25" target="uSoDxJ3zm2cTv4jHtbHI-51">
          <mxGeometry relative="1" as="geometry" />
        </mxCell>
        <mxCell id="uSoDxJ3zm2cTv4jHtbHI-25" value="" style="rounded=0;whiteSpace=wrap;html=1;" vertex="1" parent="WIyWlLk6GJQsqaUBKTNV-1">
          <mxGeometry x="815" y="440" width="30" height="30" as="geometry" />
        </mxCell>
        <mxCell id="uSoDxJ3zm2cTv4jHtbHI-26" value="Kafka/RabbitMQ" style="text;html=1;align=center;verticalAlign=middle;resizable=0;points=[];autosize=1;strokeColor=none;fillColor=none;" vertex="1" parent="WIyWlLk6GJQsqaUBKTNV-1">
          <mxGeometry x="725" y="400" width="110" height="30" as="geometry" />
        </mxCell>
        <mxCell id="uSoDxJ3zm2cTv4jHtbHI-27" value="" style="shape=cylinder3;whiteSpace=wrap;html=1;boundedLbl=1;backgroundOutline=1;size=15;" vertex="1" parent="WIyWlLk6GJQsqaUBKTNV-1">
          <mxGeometry x="382.5" y="650" width="60" height="80" as="geometry" />
        </mxCell>
        <mxCell id="uSoDxJ3zm2cTv4jHtbHI-46" value="" style="edgeStyle=orthogonalEdgeStyle;rounded=0;orthogonalLoop=1;jettySize=auto;html=1;fontSize=10;startArrow=classic;startFill=1;endArrow=none;endFill=0;" edge="1" parent="WIyWlLk6GJQsqaUBKTNV-1" source="uSoDxJ3zm2cTv4jHtbHI-28" target="uSoDxJ3zm2cTv4jHtbHI-11">
          <mxGeometry relative="1" as="geometry" />
        </mxCell>
        <mxCell id="uSoDxJ3zm2cTv4jHtbHI-28" value="&lt;font style=&quot;font-size: 10px;&quot;&gt;Cassandra&lt;/font&gt;" style="shape=cylinder3;whiteSpace=wrap;html=1;boundedLbl=1;backgroundOutline=1;size=15;" vertex="1" parent="WIyWlLk6GJQsqaUBKTNV-1">
          <mxGeometry x="392.5" y="660" width="60" height="80" as="geometry" />
        </mxCell>
        <mxCell id="uSoDxJ3zm2cTv4jHtbHI-31" value="" style="shape=cylinder3;whiteSpace=wrap;html=1;boundedLbl=1;backgroundOutline=1;size=15;" vertex="1" parent="WIyWlLk6GJQsqaUBKTNV-1">
          <mxGeometry x="557.5" y="650" width="60" height="80" as="geometry" />
        </mxCell>
        <mxCell id="uSoDxJ3zm2cTv4jHtbHI-56" value="" style="edgeStyle=orthogonalEdgeStyle;rounded=0;orthogonalLoop=1;jettySize=auto;html=1;fontSize=10;startArrow=classic;startFill=1;endArrow=none;endFill=0;" edge="1" parent="WIyWlLk6GJQsqaUBKTNV-1" source="uSoDxJ3zm2cTv4jHtbHI-32" target="uSoDxJ3zm2cTv4jHtbHI-9">
          <mxGeometry relative="1" as="geometry" />
        </mxCell>
        <mxCell id="uSoDxJ3zm2cTv4jHtbHI-32" value="&lt;font style=&quot;font-size: 10px;&quot;&gt;Cassandra&lt;/font&gt;" style="shape=cylinder3;whiteSpace=wrap;html=1;boundedLbl=1;backgroundOutline=1;size=15;" vertex="1" parent="WIyWlLk6GJQsqaUBKTNV-1">
          <mxGeometry x="567.5" y="660" width="60" height="80" as="geometry" />
        </mxCell>
        <mxCell id="uSoDxJ3zm2cTv4jHtbHI-43" value="Read" style="text;html=1;align=center;verticalAlign=middle;resizable=0;points=[];autosize=1;strokeColor=none;fillColor=none;fontSize=10;" vertex="1" parent="WIyWlLk6GJQsqaUBKTNV-1">
          <mxGeometry x="335" y="255" width="50" height="30" as="geometry" />
        </mxCell>
        <mxCell id="uSoDxJ3zm2cTv4jHtbHI-44" value="Write" style="text;html=1;align=center;verticalAlign=middle;resizable=0;points=[];autosize=1;strokeColor=none;fillColor=none;fontSize=10;" vertex="1" parent="WIyWlLk6GJQsqaUBKTNV-1">
          <mxGeometry x="415" y="215" width="50" height="30" as="geometry" />
        </mxCell>
        <mxCell id="uSoDxJ3zm2cTv4jHtbHI-51" value="Likes Microservice" style="rounded=0;whiteSpace=wrap;html=1;" vertex="1" parent="WIyWlLk6GJQsqaUBKTNV-1">
          <mxGeometry x="770" y="585" width="120" height="60" as="geometry" />
        </mxCell>
        <mxCell id="uSoDxJ3zm2cTv4jHtbHI-58" value="Write" style="text;html=1;align=center;verticalAlign=middle;resizable=0;points=[];autosize=1;strokeColor=none;fillColor=none;fontSize=10;" vertex="1" parent="WIyWlLk6GJQsqaUBKTNV-1">
          <mxGeometry x="845" y="520" width="50" height="30" as="geometry" />
        </mxCell>
        <mxCell id="uSoDxJ3zm2cTv4jHtbHI-61" value="Read" style="text;html=1;align=center;verticalAlign=middle;resizable=0;points=[];autosize=1;strokeColor=none;fillColor=none;fontSize=10;rotation=0;" vertex="1" parent="WIyWlLk6GJQsqaUBKTNV-1">
          <mxGeometry x="675" y="510" width="50" height="30" as="geometry" />
        </mxCell>
        <mxCell id="uSoDxJ3zm2cTv4jHtbHI-62" value="" style="shape=cylinder3;whiteSpace=wrap;html=1;boundedLbl=1;backgroundOutline=1;size=15;" vertex="1" parent="WIyWlLk6GJQsqaUBKTNV-1">
          <mxGeometry x="795" y="675" width="60" height="80" as="geometry" />
        </mxCell>
        <mxCell id="uSoDxJ3zm2cTv4jHtbHI-64" value="" style="edgeStyle=orthogonalEdgeStyle;rounded=0;orthogonalLoop=1;jettySize=auto;html=1;fontSize=10;startArrow=classic;startFill=1;endArrow=none;endFill=0;" edge="1" parent="WIyWlLk6GJQsqaUBKTNV-1" source="uSoDxJ3zm2cTv4jHtbHI-63" target="uSoDxJ3zm2cTv4jHtbHI-51">
          <mxGeometry relative="1" as="geometry" />
        </mxCell>
        <mxCell id="uSoDxJ3zm2cTv4jHtbHI-63" value="&lt;font style=&quot;font-size: 10px;&quot;&gt;AeroSpike&lt;/font&gt;" style="shape=cylinder3;whiteSpace=wrap;html=1;boundedLbl=1;backgroundOutline=1;size=15;" vertex="1" parent="WIyWlLk6GJQsqaUBKTNV-1">
          <mxGeometry x="805" y="685" width="60" height="80" as="geometry" />
        </mxCell>
        <mxCell id="uSoDxJ3zm2cTv4jHtbHI-70" value="" style="shape=cylinder3;whiteSpace=wrap;html=1;boundedLbl=1;backgroundOutline=1;size=15;" vertex="1" parent="WIyWlLk6GJQsqaUBKTNV-1">
          <mxGeometry x="620" y="100" width="60" height="80" as="geometry" />
        </mxCell>
        <mxCell id="uSoDxJ3zm2cTv4jHtbHI-71" value="&lt;font style=&quot;font-size: 10px;&quot;&gt;Redis&lt;/font&gt;" style="shape=cylinder3;whiteSpace=wrap;html=1;boundedLbl=1;backgroundOutline=1;size=15;" vertex="1" parent="WIyWlLk6GJQsqaUBKTNV-1">
          <mxGeometry x="630" y="110" width="60" height="80" as="geometry" />
        </mxCell>
      </root>
    </mxGraphModel>
  </diagram>
</mxfile>
